<?xml version="1.0" standalone="no"?>
<!DOCTYPE svg PUBLIC "-//W3C//DTD SVG 20010904//EN"
 "http://www.w3.org/TR/2001/REC-SVG-20010904/DTD/svg10.dtd">
<svg version="1.0" xmlns="http://www.w3.org/2000/svg"
 width="345.000000pt" height="345.000000pt" viewBox="0 0 345.000000 345.000000"
 preserveAspectRatio="xMidYMid meet">

<g transform="translate(0.000000,345.000000) scale(0.100000,-0.100000)"
fill="#000000" stroke="none">
<path d="M1645 3396 c-275 -63 -487 -184 -760 -435 -511 -471 -778 -866 -826
-1226 -41 -310 111 -667 410 -965 324 -323 815 -592 1261 -692 92 -20 130 -23
305 -22 185 1 208 3 298 27 491 135 834 549 1007 1215 135 518 112 970 -67
1302 -133 248 -359 449 -678 605 -164 81 -289 128 -435 167 -101 26 -136 30
-285 34 -122 3 -187 0 -230 -10z m973 -1062 c66 -46 88 -186 44 -275 -12 -26
-75 -109 -140 -185 -191 -227 -302 -362 -302 -368 0 -3 101 -6 223 -6 l224 0
12 -26 c19 -42 25 -137 11 -178 -7 -23 -24 -45 -44 -57 -29 -18 -54 -19 -412
-19 l-381 0 -21 23 c-56 59 -68 168 -28 252 13 28 120 165 240 308 119 142
216 260 216 263 0 2 -97 4 -215 4 l-215 0 -12 28 c-20 49 -22 155 -3 191 30
58 44 60 430 61 302 0 354 -2 373 -16z m-946 -21 c7 -16 12 -63 13 -105 0 -72
-2 -80 -28 -105 l-27 -28 -215 -3 -215 -3 0 -95 0 -94 200 0 200 0 12 -27 c17
-43 21 -154 6 -183 -26 -50 -67 -60 -250 -60 l-168 0 -2 -192 -3 -193 -65 -8
c-36 -5 -94 -5 -130 -2 -54 6 -69 12 -96 39 -28 28 -33 40 -39 106 -4 41 -5
253 -3 470 4 551 -34 509 461 510 l337 0 12 -27z"/>
</g>
</svg>
