<svg width="507" height="507" viewBox="0 0 507 507" fill="none" xmlns="http://www.w3.org/2000/svg">
<path fill-rule="evenodd" clip-rule="evenodd" d="M507 0H0V507H507V0ZM267.177 414.131C272.247 411.276 279.459 407.106 288.091 401.711C310.288 387.876 331.462 372.467 351.448 355.604C396.855 317.029 446 260.236 446 193.353C446 132.706 396.346 88 345.359 88C305.11 88 272.651 109.477 253 142.393C233.367 109.477 200.89 88 160.641 88C109.636 88 60 132.706 60 193.335C60 260.219 109.127 316.994 154.552 355.621C180.742 377.721 208.957 397.311 238.823 414.131C241.519 415.645 244.239 417.117 246.982 418.546C248.844 419.501 250.907 420 253 420C255.093 420 257.156 419.501 259.018 418.546H259.053C261.773 417.109 264.492 415.638 267.177 414.131Z" fill="black"/>
</svg>
